<mxfile host="65bd71144e" scale="5" border="10">
    <diagram id="mpP8sGz9FHktHrAXvyJB" name="ページ1">
        <mxGraphModel dx="1553" dy="1088" grid="1" gridSize="10" guides="1" tooltips="1" connect="1" arrows="1" fold="1" page="1" pageScale="1" pageWidth="1169" pageHeight="827" background="#ffffff" math="0" shadow="0">
            <root>
                <mxCell id="0"/>
                <mxCell id="1" parent="0"/>
                <mxCell id="52" style="edgeStyle=orthogonalEdgeStyle;html=1;entryX=-0.003;entryY=0.494;entryDx=0;entryDy=0;entryPerimeter=0;rounded=0;endArrow=none;endFill=0;" parent="1" source="48" target="50" edge="1">
                    <mxGeometry relative="1" as="geometry">
                        <Array as="points">
                            <mxPoint x="250" y="413"/>
                            <mxPoint x="250" y="413"/>
                        </Array>
                    </mxGeometry>
                </mxCell>
                <mxCell id="70" style="edgeStyle=orthogonalEdgeStyle;rounded=0;html=1;endArrow=none;endFill=0;" edge="1" parent="1" target="64">
                    <mxGeometry relative="1" as="geometry">
                        <mxPoint x="195" y="470" as="sourcePoint"/>
                        <Array as="points">
                            <mxPoint x="195" y="640"/>
                        </Array>
                    </mxGeometry>
                </mxCell>
                <mxCell id="48" value=": User" style="shape=umlActor;verticalLabelPosition=bottom;verticalAlign=top;html=1;outlineConnect=0;" parent="1" vertex="1">
                    <mxGeometry x="180" y="383" width="30" height="60" as="geometry"/>
                </mxCell>
                <mxCell id="60" style="rounded=0;html=1;endArrow=none;endFill=0;entryX=0.843;entryY=0.147;entryDx=0;entryDy=0;entryPerimeter=0;" parent="1" source="65" edge="1" target="64">
                    <mxGeometry relative="1" as="geometry">
                        <mxPoint x="490" y="600" as="targetPoint"/>
                    </mxGeometry>
                </mxCell>
                <mxCell id="66" style="edgeStyle=none;html=1;endArrow=none;endFill=0;rounded=0;" edge="1" parent="1" source="50" target="65">
                    <mxGeometry relative="1" as="geometry"/>
                </mxCell>
                <mxCell id="50" value=": AIと会話を&lt;br&gt;する画面" style="shape=umlBoundary;whiteSpace=wrap;html=1;" parent="1" vertex="1">
                    <mxGeometry x="440" y="373" width="100" height="80" as="geometry"/>
                </mxCell>
                <mxCell id="53" value="1 : 感情分析AIとの会話の終了を指示する&lt;br&gt;（conversation）" style="html=1;verticalAlign=bottom;endArrow=block;rounded=0;" parent="1" edge="1">
                    <mxGeometry y="10" width="80" relative="1" as="geometry">
                        <mxPoint x="270" y="400" as="sourcePoint"/>
                        <mxPoint x="390" y="399.9999999999999" as="targetPoint"/>
                        <mxPoint as="offset"/>
                    </mxGeometry>
                </mxCell>
                <mxCell id="61" value="3 : 表示する" style="html=1;verticalAlign=bottom;endArrow=block;rounded=0;" parent="1" edge="1">
                    <mxGeometry x="0.2" y="-20" width="80" relative="1" as="geometry">
                        <mxPoint x="670" y="489.9999999999999" as="sourcePoint"/>
                        <mxPoint x="590" y="550" as="targetPoint"/>
                        <mxPoint as="offset"/>
                    </mxGeometry>
                </mxCell>
                <mxCell id="74" style="edgeStyle=orthogonalEdgeStyle;rounded=0;html=1;endArrow=none;endFill=0;" edge="1" parent="1" source="64" target="65">
                    <mxGeometry relative="1" as="geometry">
                        <Array as="points">
                            <mxPoint x="780" y="640"/>
                        </Array>
                    </mxGeometry>
                </mxCell>
                <mxCell id="64" value=": 操作の確認を行う画面" style="shape=umlBoundary;whiteSpace=wrap;html=1;" parent="1" vertex="1">
                    <mxGeometry x="440" y="600" width="100" height="80" as="geometry"/>
                </mxCell>
                <mxCell id="69" style="edgeStyle=none;rounded=0;html=1;endArrow=none;endFill=0;" edge="1" parent="1" source="65" target="68">
                    <mxGeometry relative="1" as="geometry"/>
                </mxCell>
                <mxCell id="65" value=": 会話管理" style="ellipse;shape=umlControl;whiteSpace=wrap;html=1;" vertex="1" parent="1">
                    <mxGeometry x="750" y="373" width="70" height="80" as="geometry"/>
                </mxCell>
                <mxCell id="67" value="2 : 内容を確認する（conversation）" style="html=1;verticalAlign=bottom;endArrow=block;rounded=0;" edge="1" parent="1">
                    <mxGeometry y="10" width="80" relative="1" as="geometry">
                        <mxPoint x="570" y="399.9999999999999" as="sourcePoint"/>
                        <mxPoint x="730" y="400" as="targetPoint"/>
                        <mxPoint as="offset"/>
                    </mxGeometry>
                </mxCell>
                <mxCell id="68" value=": Conversation" style="ellipse;shape=umlEntity;whiteSpace=wrap;html=1;" vertex="1" parent="1">
                    <mxGeometry x="980" y="374" width="80" height="80" as="geometry"/>
                </mxCell>
                <mxCell id="71" value="6 : 削除する（）" style="html=1;verticalAlign=bottom;endArrow=block;rounded=0;" edge="1" parent="1">
                    <mxGeometry y="10" width="80" relative="1" as="geometry">
                        <mxPoint x="850" y="400" as="sourcePoint"/>
                        <mxPoint x="950" y="400" as="targetPoint"/>
                        <mxPoint as="offset"/>
                    </mxGeometry>
                </mxCell>
                <mxCell id="73" value="4 : 感情分析AIとの会話の終了を確定する&lt;br&gt;（conversation）" style="html=1;verticalAlign=bottom;endArrow=block;rounded=0;" edge="1" parent="1">
                    <mxGeometry y="10" width="80" relative="1" as="geometry">
                        <mxPoint x="260" y="630" as="sourcePoint"/>
                        <mxPoint x="380" y="630" as="targetPoint"/>
                        <mxPoint as="offset"/>
                    </mxGeometry>
                </mxCell>
                <mxCell id="75" value="5 : 終了する（conversation）" style="html=1;verticalAlign=bottom;endArrow=block;rounded=0;" edge="1" parent="1">
                    <mxGeometry y="10" width="80" relative="1" as="geometry">
                        <mxPoint x="600" y="630" as="sourcePoint"/>
                        <mxPoint x="720" y="630" as="targetPoint"/>
                        <mxPoint as="offset"/>
                    </mxGeometry>
                </mxCell>
                <mxCell id="77" style="edgeStyle=orthogonalEdgeStyle;rounded=0;html=1;entryX=0.594;entryY=0.99;entryDx=0;entryDy=0;entryPerimeter=0;endArrow=none;endFill=0;" edge="1" parent="1" source="76" target="65">
                    <mxGeometry relative="1" as="geometry"/>
                </mxCell>
                <mxCell id="76" value=": メイン画面" style="shape=umlBoundary;whiteSpace=wrap;html=1;" vertex="1" parent="1">
                    <mxGeometry x="440" y="720" width="100" height="80" as="geometry"/>
                </mxCell>
                <mxCell id="78" value="7 : 表示する" style="html=1;verticalAlign=bottom;endArrow=block;rounded=0;" edge="1" parent="1">
                    <mxGeometry y="-10" width="80" relative="1" as="geometry">
                        <mxPoint x="700" y="750" as="sourcePoint"/>
                        <mxPoint x="600" y="750" as="targetPoint"/>
                        <mxPoint as="offset"/>
                    </mxGeometry>
                </mxCell>
            </root>
        </mxGraphModel>
    </diagram>
</mxfile>